<svg xmlns="http://www.w3.org/2000/svg" width="100.07633441964845" height="48" style=""><rect id="backgroundrect" width="100%" height="100%" x="0" y="0" fill="none" stroke="none" class="" style=""/>
    
    
<g class="currentLayer" style=""><title>Layer 1</title><path d="M0.15266852309649792,0.15267175436019897 h99.90839934287794 v48 H0.15266852309649792 z" fill="#41e8e8" id="svg_1" class="" fill-opacity="1"/><path d="M65.11954055786133,25.95 c0.08000000000000003,-0.6400000000000002 0.14,-1.29 0.14,-1.9500000000000002 s-0.06000000000000002,-1.31 -0.14,-1.9500000000000002 l4.23,-3.31 c0.3800000000000001,-0.3000000000000001 0.4900000000000001,-0.8400000000000002 0.24000000000000005,-1.28 l-4,-6.93 c-0.25,-0.4300000000000001 -0.77,-0.6100000000000002 -1.22,-0.4300000000000001 l-4.98,2.01 c-1.03,-0.79 -2.16,-1.46 -3.38,-1.97 L55.25954055786133,4.84 c-0.09000000000000004,-0.4700000000000001 -0.5,-0.8400000000000002 -1,-0.8400000000000002 h-8 c-0.5,0 -0.91,0.3700000000000001 -0.99,0.8400000000000002 l-0.7500000000000002,5.3 c-1.22,0.51 -2.35,1.17 -3.38,1.97 L36.15954055786133,10.1 c-0.45,-0.17 -0.97,0 -1.22,0.4300000000000001 l-4,6.93 c-0.25,0.4300000000000001 -0.14,0.97 0.24000000000000005,1.28 l4.22,3.31 C35.31954055786133,22.69 35.25954055786133,23.34 35.25954055786133,24 s0.06000000000000002,1.31 0.14,1.9500000000000002 l-4.22,3.31 c-0.3800000000000001,0.3000000000000001 -0.4900000000000001,0.8400000000000002 -0.24000000000000005,1.28 l4,6.93 c0.25,0.4300000000000001 0.77,0.6100000000000002 1.22,0.4300000000000001 l4.98,-2.01 c1.03,0.79 2.16,1.46 3.38,1.97 l0.7500000000000002,5.3 c0.08000000000000003,0.4700000000000001 0.4900000000000001,0.8400000000000002 0.99,0.8400000000000002 h8 c0.5,0 0.91,-0.3700000000000001 0.99,-0.8400000000000002 l0.7500000000000002,-5.3 c1.22,-0.51 2.35,-1.17 3.38,-1.97 l4.98,2.01 c0.45,0.17 0.97,0 1.22,-0.4300000000000001 l4,-6.93 c0.25,-0.4300000000000001 0.14,-0.97 -0.24000000000000005,-1.28 l-4.22,-3.31 zM50.25954055786133,31 c-3.87,0 -7,-3.13 -7,-7 s3.13,-7 7,-7 s7,3.13 7,7 s-3.13,7 -7,7 z" id="svg_2" class="selected" fill="#ffffff" fill-opacity="1"/></g></svg>